<svg width="320" height="320" viewBox="0 0 320 320" fill="none" xmlns="http://www.w3.org/2000/svg">
<g clip-path="url(#clip0)">
<path d="M283.756 8.31222C278.619 3.00182 271.55 0 264.161 0H78.5625C94.104 7.92539 105.421 24.456 105.421 42.2687C105.421 56.778 99.2535 69.7045 89.1335 78.5798H280.812C290.921 69.6997 297.321 56.3079 297.321 41.79C297.321 28.7667 292.145 16.994 283.756 8.31222Z" fill="#AEC0DC"/>
<path d="M156.061 313.097C155.944 313.791 156.259 314.485 156.852 314.872C157.452 315.25 158.223 315.219 158.799 314.823L167.83 308.526C171.629 305.869 176.849 306.721 179.606 310.45L186.161 319.286C186.587 319.861 187.306 320.119 187.985 319.95C188.679 319.786 189.189 319.216 189.303 318.527L197.138 270.548C184.812 270.051 173.647 265.113 165.167 257.27L156.061 313.097Z" fill="#AEC0DC"/>
<path d="M201.123 270.557L208.957 318.532C209.071 319.217 209.592 319.782 210.277 319.95C210.966 320.108 211.685 319.855 212.101 319.286L220.669 307.738C222.304 305.522 225.413 305.01 227.674 306.582L239.469 314.823C240.044 315.214 240.812 315.239 241.407 314.862C242.007 314.485 242.319 313.791 242.205 313.091L233.092 257.278C224.615 265.132 213.439 270.07 201.123 270.557Z" fill="#AEC0DC"/>
<path d="M230.099 248.879C236.942 241.402 241.156 231.486 241.156 220.588C241.156 197.424 222.296 178.563 199.135 178.563C175.966 178.563 157.117 197.433 157.117 220.588C157.117 231.442 161.28 241.308 168.067 248.77C168.885 249.683 169.738 250.545 170.641 251.388C177.757 257.973 187.123 262.112 197.465 262.519C198.031 262.544 198.576 262.614 199.136 262.614C199.696 262.614 200.252 262.545 200.807 262.519C211.139 262.112 220.515 257.973 227.631 251.388C228.482 250.585 229.315 249.752 230.099 248.879Z" fill="#AEC0DC"/>
<path d="M83.6746 74.0871C92.9511 65.953 98.068 54.8094 98.068 42.714C98.068 23.3357 84.1783 11.0938 74.11 4.77229C66.4795 -0.0248798 56.9598 -0.872284 48.6026 2.5135C33.3962 8.66652 22.6797 23.5684 22.6797 40.9837V271.301C22.6797 275.881 26.3862 279.595 30.9795 279.595H152.913L157.933 248.83C152.38 240.787 149.061 231.079 149.061 220.588C149.061 192.981 171.515 170.516 199.131 170.516C226.739 170.516 249.199 192.992 249.199 220.588C249.199 231.079 245.892 240.797 240.314 248.84L245.341 279.595H262.308C266.9 279.579 270.638 275.862 270.638 271.28V84.9875H71.2422C71.2422 84.9875 80.5684 76.8141 83.6746 74.0871ZM242.177 168.229H57.9442C55.6538 168.229 53.801 166.366 53.801 164.075C53.801 161.78 55.6538 159.925 57.9442 159.925H242.177C244.463 159.925 246.322 161.78 246.322 164.075C246.322 166.366 244.463 168.229 242.177 168.229ZM53.8067 139.53C53.8067 137.236 55.6614 135.378 57.9547 135.378H187.965C190.265 135.378 192.13 137.237 192.13 139.53C192.13 141.821 190.266 143.68 187.965 143.68H57.9394C55.6538 143.68 53.8067 141.82 53.8067 139.53ZM242.177 110.819C244.463 110.819 246.322 112.684 246.322 114.971C246.322 117.266 244.463 119.121 242.177 119.121H57.9442C55.6538 119.121 53.801 117.266 53.801 114.971C53.801 112.683 55.6538 110.819 57.9442 110.819H242.177Z" fill="#AEC0DC"/>
</g>
<defs>
<clipPath id="clip0">
<rect width="320" height="320" fill="white"/>
</clipPath>
</defs>
</svg>
