<svg width="312" height="160" viewBox="0 0 312 160" fill="none" xmlns="http://www.w3.org/2000/svg">
<g filter="url(#filter0_d)">
<rect width="295" height="144" rx="40" fill="#5181C8"/>
<path d="M81.209 110H66.5605V79.5312H37.9961V110H23.3477V38.9062H37.9961V67.7148H66.5605V38.9062H81.209V110ZM152.449 76.0645C152.449 83.0632 151.212 89.1992 148.738 94.4727C146.264 99.7461 142.716 103.815 138.094 106.68C133.504 109.544 128.23 110.977 122.273 110.977C116.382 110.977 111.124 109.561 106.502 106.729C101.88 103.896 98.2988 99.86 95.7598 94.6191C93.2207 89.3457 91.9349 83.291 91.9023 76.4551V72.9395C91.9023 65.9408 93.1556 59.7884 95.6621 54.4824C98.2012 49.1439 101.766 45.0586 106.355 42.2266C110.978 39.362 116.251 37.9297 122.176 37.9297C128.1 37.9297 133.357 39.362 137.947 42.2266C142.57 45.0586 146.134 49.1439 148.641 54.4824C151.18 59.7884 152.449 65.9245 152.449 72.8906V76.0645ZM137.605 72.8418C137.605 65.3874 136.271 59.7233 133.602 55.8496C130.932 51.9759 127.124 50.0391 122.176 50.0391C117.26 50.0391 113.468 51.9596 110.799 55.8008C108.13 59.6094 106.779 65.2083 106.746 72.5977V76.0645C106.746 83.3236 108.081 88.9551 110.75 92.959C113.419 96.9629 117.26 98.9648 122.273 98.9648C127.189 98.9648 130.965 97.0443 133.602 93.2031C136.238 89.3294 137.573 83.6979 137.605 76.3086V72.8418ZM177.742 84.9512V110H163.094V38.9062H190.828C196.167 38.9062 200.854 39.8828 204.891 41.8359C208.96 43.7891 212.085 46.5723 214.266 50.1855C216.447 53.7663 217.537 57.8516 217.537 62.4414C217.537 69.4076 215.145 74.9089 210.359 78.9453C205.607 82.9492 199.015 84.9512 190.584 84.9512H177.742ZM177.742 73.0859H190.828C194.702 73.0859 197.648 72.1745 199.666 70.3516C201.717 68.5286 202.742 65.9245 202.742 62.5391C202.742 59.056 201.717 56.2402 199.666 54.0918C197.615 51.9434 194.783 50.8366 191.17 50.7715H177.742V73.0859ZM270.418 79.1895H242.293V98.2324H275.301V110H227.645V38.9062H275.203V50.7715H242.293V67.7148H270.418V79.1895Z" fill="#041E42"/>
<rect x="1" y="1" width="293" height="142" rx="39" stroke="#3C88F9" stroke-width="2" stroke-linejoin="round"/>
</g>
<defs>
<filter id="filter0_d" x="0" y="0" width="312" height="160" filterUnits="userSpaceOnUse" color-interpolation-filters="sRGB">
<feFlood flood-opacity="0" result="BackgroundImageFix"/>
<feColorMatrix in="SourceAlpha" type="matrix" values="0 0 0 0 0 0 0 0 0 0 0 0 0 0 0 0 0 0 127 0" result="hardAlpha"/>
<feOffset dx="12" dy="11"/>
<feGaussianBlur stdDeviation="2.5"/>
<feColorMatrix type="matrix" values="0 0 0 0 0 0 0 0 0 0.401681 0 0 0 0 0.995833 0 0 0 0.55 0"/>
<feBlend mode="normal" in2="BackgroundImageFix" result="effect1_dropShadow"/>
<feBlend mode="normal" in="SourceGraphic" in2="effect1_dropShadow" result="shape"/>
</filter>
</defs>
</svg>
