<svg width="300" height="292" viewBox="0 0 300 292" fill="none" xmlns="http://www.w3.org/2000/svg">
<path d="M0 281.15C0 286.663 4.47071 291.133 9.98384 291.133H290.016C295.529 291.133 300 286.663 300 281.15V10.8495C300 5.33741 295.529 0.866699 290.016 0.866699H9.98384C4.47071 0.866699 0 5.33741 0 10.8495V281.15ZM19.9667 20.8334H280.034V182.065H143.51V146.789L181.822 108.786C183.707 106.916 184.77 104.374 184.775 101.719C184.78 99.0647 183.728 96.5172 181.85 94.6384L181.577 94.3647L238.354 51.7829C242.764 48.4748 243.658 42.2162 240.35 37.8051C237.042 33.395 230.785 32.501 226.373 35.8081L167.314 80.1011L165.379 78.1657C162.154 74.9425 157.152 74.3132 153.229 76.6374L133.31 88.4445C134.368 84.7212 134.945 80.799 134.945 76.7404C134.945 53.0697 115.688 33.8122 92.0172 33.8122C68.3455 33.8122 49.0889 53.0697 49.0889 76.7404C49.0889 86.5586 52.4091 95.6101 57.9747 102.851C48.1626 111.416 45.5061 124.412 44.4273 129.707C41.6242 143.462 41.2424 161.389 41.1899 182.066H19.9667V20.8334ZM92.0182 99.7021C79.3566 99.7021 69.0566 89.4021 69.0566 76.7404C69.0566 64.0798 79.3566 53.7798 92.0182 53.7798C104.679 53.7798 114.979 64.0798 114.979 76.7404C114.979 89.4021 104.679 99.7021 92.0182 99.7021ZM63.9919 133.693C65.4121 126.723 67.3131 122.394 69.4636 119.668H117.055C118.844 119.668 120.604 119.186 122.144 118.273L156.74 97.7657L160.643 101.669L126.496 135.541C124.605 137.416 123.542 139.968 123.542 142.629V182.064H61.1556C61.2061 162.49 61.5535 145.657 63.9919 133.693ZM280.033 202.031V271.167H19.9667V202.031H280.033Z" fill="#AEC0DC"/>
<path d="M260.609 225.492H80.9245V222.42C80.9245 216.907 76.4548 212.436 70.9406 212.436C65.4275 212.436 60.9578 216.907 60.9578 222.42V225.492H39.3881C33.875 225.492 29.4053 229.963 29.4053 235.476C29.4053 240.989 33.875 245.46 39.3881 245.46H60.9578V248.531C60.9578 254.044 65.4275 258.515 70.9406 258.515C76.4548 258.515 80.9245 254.044 80.9245 248.531V245.46H260.609C266.123 245.46 270.593 240.989 270.593 235.476C270.593 229.963 266.123 225.492 260.609 225.492Z" fill="#AEC0DC"/>
</svg>
