<svg width="300" height="300" viewBox="0 0 300 300" fill="none" xmlns="http://www.w3.org/2000/svg">
<path d="M300 64.2859V75.0001C300 76.4209 299.473 77.7835 298.536 78.7882C297.598 79.7929 296.326 80.3573 295 80.3573H280V88.393C280 92.8307 276.642 96.4287 272.5 96.4287H27.5C23.3581 96.4287 20 92.8307 20 88.393V80.3573H5C3.67392 80.3573 2.40215 79.7929 1.46447 78.7882C0.526784 77.7835 0 76.4209 0 75.0001V64.2859C7.1509e-06 63.226 0.293424 62.19 0.843126 61.3089C1.39283 60.4277 2.17411 59.7411 3.08812 59.3359L148.088 0.407324C149.312 -0.135775 150.688 -0.135775 151.912 0.407324L296.912 59.3359C297.826 59.7411 298.607 60.4277 299.157 61.3089C299.707 62.19 300 63.226 300 64.2859ZM285 267.857H15C6.71562 267.857 0 275.052 0 283.929V294.643C0 296.064 0.526784 297.426 1.46447 298.431C2.40215 299.436 3.67392 300 5 300H295C296.326 300 297.598 299.436 298.536 298.431C299.473 297.426 300 296.064 300 294.643V283.929C300 275.052 293.284 267.857 285 267.857ZM50 107.143V235.714H27.5C23.3581 235.714 20 239.312 20 243.75V257.143H280V243.75C280 239.312 276.642 235.714 272.5 235.714H250V107.143H210V235.714H170V107.143H130V235.714H90V107.143H50Z" fill="#AEC0DC"/>
</svg>
